<?xml version="1.0" encoding="UTF-8"?>
<svg xmlns="http://www.w3.org/2000/svg" id="Layer_1" data-name="Layer 1" version="1.1" viewBox="0 0 261.6 56.8">
  <defs>
    <style>
      .cls-1 {
        fill: #00bd6e;
        fill-rule: evenodd;
      }

      .cls-1, .cls-2 {
        stroke-width: 0px;
      }

      .cls-2 {
        fill: #fff;
      }
    </style>
  </defs>
  <g id="_3" data-name=" 3">
    <path class="cls-2" d="M113.4,17c1.2,0,2.2-.3,3.1-.9.9-.6,1.5-1.4,2-2.4.5-1,.7-2.2.7-3.4s-.4-2.3-1.2-3.1c-.8-.8-1.8-1.2-3.2-1.2s-2.2.3-3.1.9c-.9.6-1.5,1.4-2,2.4-.5,1-.7,2.1-.7,3.4s.4,2.3,1.2,3.1c.8.8,1.8,1.2,3.2,1.2M112.7,23c-2.2,0-4.2-.4-5.9-1.2s-3-2-3.9-3.5-1.4-3.2-1.4-5.1.6-4.8,1.8-6.8c1.2-2,2.8-3.6,4.9-4.7C110.4.6,112.8,0,115.4,0s4.2.4,5.9,1.2c1.7.8,3,2,3.9,3.5.9,1.5,1.4,3.2,1.4,5.1s-.6,4.8-1.8,6.8c-1.2,2-2.8,3.6-4.9,4.7s-4.5,1.7-7.2,1.7ZM140.1,17c1.2,0,2.2-.3,3.1-.9.9-.6,1.5-1.4,2-2.4.5-1,.7-2.2.7-3.4s-.4-2.3-1.1-3.1c-.8-.8-1.8-1.2-3.2-1.2s-2.2.3-3.1.9c-.9.6-1.5,1.4-2,2.4-.5,1-.7,2.1-.7,3.4s.4,2.3,1.1,3.1c.8.8,1.8,1.2,3.2,1.2h0ZM139.4,23c-2.2,0-4.2-.4-5.9-1.2-1.7-.8-3-2-3.9-3.5-.9-1.5-1.4-3.2-1.4-5.1s.6-4.8,1.8-6.8,2.8-3.6,4.9-4.7C137.1.6,139.5,0,142.1,0s4.2.4,5.9,1.2c1.7.8,3,2,3.9,3.5.9,1.5,1.4,3.2,1.4,5.1s-.6,4.8-1.8,6.8c-1.2,2-2.8,3.6-4.9,4.7s-4.5,1.7-7.2,1.7ZM161.4,6.3h-6.4l1.2-5.8h20.3c-1.1,5.5-2.2,5.8-7.6,5.8l-2.2,11.3c-.9,4.6-4.3,4.9-8.4,4.9l3.2-16.3h0ZM187.1,17.3c.8,0,1.4-.2,1.8-.5s.7-.8.7-1.5-.2-.8-.5-1.1-.8-.4-1.3-.4h-4.8l-.7,3.5h4.8ZM184.6,5.7l-.7,3.3h3.8c1.6,0,2.4-.6,2.4-1.9s-.2-.8-.5-1c-.3-.2-.8-.3-1.4-.3h-3.6ZM194,11.2c.9.4,1.7,1,2.2,1.7.5.7.8,1.6.8,2.6,0,2.3-1,4.1-2.9,5.2s-4.4,1.8-7.4,1.8h-12.7l4.4-22h11.7c2.6,0,4.5.5,5.9,1.4,1.3.9,2,2.2,2,3.9s-.4,2.3-1,3.3c-.7.9-1.7,1.7-2.9,2.2h0ZM228.1.5h7.4l-3.2,16.3h9.9c-.7,3.4-2.2,5.8-6,5.8h-12.5l4.4-22h0ZM145.1,27.6l-4.4,22h-6.1l-6.3-10.3-1.1,5.3c-1,4.9-3.4,5-8.2,5l4.4-22h6.1l6.3,10.3,2.1-10.3h7.2,0ZM185.8,38h6.4l-1.9,9.5c-1.2.8-2.5,1.5-4,1.9-1.5.5-3.1.7-4.9.7s-4.2-.4-5.9-1.2c-1.7-.8-3-2-4-3.5-.9-1.5-1.4-3.2-1.4-5.1s.6-4.8,1.8-6.8c1.2-2,2.9-3.5,5-4.7s4.6-1.7,7.4-1.7c4.6,0,7.9,1.4,10,4.3-2.8,2.9-4.9,3.5-7.6,2.2-.8-.4-1.7-.5-2.8-.5s-2.4.3-3.4.8c-.9.6-1.7,1.4-2.2,2.4s-.8,2.2-.8,3.5.4,2.3,1.3,3.1,2.1,1.2,3.6,1.2,1.5,0,2.2-.3l1.2-5.8h0ZM203.7,33.2l-.5,2.6h9.3c-.6,3.1-1.5,5.3-5,5.3h-5.4l-.6,2.9h11c-.6,3-2.2,5.6-5.9,5.6h-13.5l4.4-22h17.9c-.7,3.2-1.8,5.6-5.4,5.6h-6.3,0ZM230.2,35.5c0-1.5-.9-2.2-2.8-2.2h-2.5l-1,5.2h3.1c1,0,1.8-.3,2.4-.8.6-.5.9-1.2.9-2.2h0ZM237.7,34.8c0,2-.5,3.7-1.6,5.1s-2.5,2.5-4.4,3.3l3.7,6.4h-7.7l-3.1-5.5h-1.8v.5c-.9,4.2-4.6,5-8.5,5l4.4-22h9.9c2.9,0,5.1.6,6.8,1.9,1.6,1.3,2.4,3.1,2.4,5.3ZM85.1,33.2l-.8,3.8h9.2c-.6,3-1,5.6-4.8,5.6h-5.5l-.4,2.1c-1,5-4,4.9-8.4,4.9l4.4-22h17.9c-.5,3-.9,5.6-4.6,5.6h-7ZM101.1,45.7l-.5.8c-1.6,2.7-2.7,3-9.6,3l14-22h7.3l5.2,22h-7.4c-.6-3.1-1.2-6.1-1.8-9.2-.9,5.5-2.1,5.3-7.4,5.4h0s0,0,0,0ZM107.4,34.8c-1.1,1.9-2.2,3.9-3.3,5.8,1-.2,2.4-.2,4.4-.2-.4-1.9-.7-3.7-1.1-5.6h0ZM247.5.5h7.4l-3.2,16.3h9.9c-.7,3.4-2.2,5.8-6,5.8h-12.5l4.4-22h0ZM152.6,45.7l-.5.8c-1.6,2.7-2.7,3-9.6,3l14-22h7.3l5.2,22h-7.4c-.6-3.1-1.2-6.1-1.8-9.2-.9,5.5-2.2,5.4-7.4,5.4h0s0,0,0,0ZM158.9,34.8c-1.1,1.9-2.2,3.9-3.3,5.8,1-.2,2.4-.2,4.4-.2-.4-1.9-.7-3.7-1.1-5.6h0ZM205.7,18.7l-.5.8c-1.6,2.7-2.7,3-9.6,3L209.7.5h7.3l5.2,22h-7.4c-.6-3.1-1.2-6.1-1.8-9.2-.9,5.5-2.2,5.4-7.4,5.4h0s0,0,0,0ZM212,7.7c-1.1,1.9-2.2,3.9-3.3,5.8,1-.2,2.4-.2,4.4-.2-.4-1.9-.7-3.7-1.1-5.6h0ZM90.9,6.1l-.8,3.8h9.2c-.6,3-1,5.6-4.8,5.6h-5.5l-.4,2.1c-1,5-4,4.9-8.4,4.9L84.6.5h17.9c-.5,3-.9,5.6-4.6,5.6h-7,0Z"></path>
    <path class="cls-1" d="M22.9,15.1h0c-15.1-.2-15.5-.4-17.7,14.6,15.3,0,15.2.4,17.7-14.6ZM17.7,42.2c-2.5,15-2.4,14.6-17.7,14.6,2.1-15,2.6-14.8,17.7-14.6,2-14.1,1.9-14.6,17.7-14.6h15.5c-2.5,14.5-3.4,14.4-12.7,14.6h-20.5ZM54.8,15.1h-31.9C24.9,1,24.8.5,40.5.5h26.9c-2.5,14.5-3.4,14.4-12.7,14.6h0Z"></path>
  </g>
</svg>
